# xmcd
# 
# Track frame offsets:
#     150
#     11394
#     21789
#     32787
#     41506
#     52519
#     65033
#     74940
#     89881
#     100885
#     110996
#     120981
#     131715
#     141307
#     150327
#     162120
#     172063
#     185779
#     196433
#     205400
#     217988
#     231794
#     240667
#     251880
#     265148
# 
# Disc length: 3684
# 
# Revision: 0
# Processed by: cddbd v1.5.2PL0 Copyright (c) Steve Scherf et al.
# Submitted via: fre:ac v1.0.31
# 
DISCID=770e6219
DTITLE=Patsy Cline - The Complete Releases 1955-62 Disc 3
DYEAR=0
DGENRE=Country
TTITLE0=Hungry For Love
TTITLE1=Too Many Secrets
TTITLE2=Don't Ever Leave Me Again
TTITLE3=Ain't No Wheels On This Ship
TTITLE4=I Can't Forget
TTITLE5=Fingerprints
TTITLE6=Foolin' Around
TTITLE7=The Wayward Wind
TTITLE8=South Of The Border
TTITLE9=I Love You So Much It Hurts
TTITLE10=Seven Lonely Days
TTITLE11=San Antonio Rose
TTITLE12=True Love
TTITLE13=Walkin' After Midnight
TTITLE14=A Poor man's Roses (Or A Rich Man's Gold)
TTITLE15=Have You Ever Been Lonely (Have You Ever Been Blue)
TTITLE16=That's My Desire
TTITLE17=Your Cheatin' Heart
TTITLE18=Anytime
TTITLE19=You Made Me Love You (I Didn't Want To Do It)
TTITLE20=You Belong To Me
TTITLE21=You Were Only Foolin' (While I Was Falling In Love)
TTITLE22=Half As Much
TTITLE23=I Can't Help It (If I'm Still In Love With You
TTITLE24=Lonely Street
EXTD=
EXTT0=
EXTT1=
EXTT2=
EXTT3=
EXTT4=
EXTT5=
EXTT6=
EXTT7=
EXTT8=
EXTT9=
EXTT10=
EXTT11=
EXTT12=
EXTT13=
EXTT14=
EXTT15=
EXTT16=
EXTT17=
EXTT18=
EXTT19=
EXTT20=
EXTT21=
EXTT22=
EXTT23=
EXTT24=
PLAYORDER=
